<svg xmlns="http://www.w3.org/2000/svg" xmlns:xlink="http://www.w3.org/1999/xlink" viewBox="0 0 1080 1080"><defs><style>.cls-1,.cls-2{fill:none;}.cls-1,.cls-11,.cls-12,.cls-13,.cls-9{stroke:#00121e;stroke-miterlimit:10;}.cls-1,.cls-12,.cls-13,.cls-9{stroke-width:8px;}.cls-3{isolation:isolate;}.cls-4{fill:#d7dee2;}.cls-5{fill:#e4f2f9;}.cls-21,.cls-6,.cls-9{fill:#00121e;}.cls-7{fill:#1a69aa;}.cls-8{opacity:0.37;}.cls-10{fill:#d7efff;}.cls-11{fill:#f9ce19;stroke-width:9px;}.cls-12{fill:#c00;}.cls-13,.cls-15{fill:#7a8e93;}.cls-14{clip-path:url(#clip-path);}.cls-16{fill:#c7cfd1;}.cls-17{clip-path:url(#clip-path-2);}.cls-18{fill:#90a6b2;}.cls-19{clip-path:url(#clip-path-3);}.cls-20{fill:#dfeaef;}.cls-21{mix-blend-mode:hard-light;font-size:33px;font-family:aAsianNinja, a Asian Ninja;}.cls-22{fill:#bf1d11;}</style><clipPath id="clip-path"><path class="cls-1" d="M308.46,639.43S650.25,810.13,767.6,829.24l32.62-17.18S564.5,737.46,315.58,603.55Z"/></clipPath><clipPath id="clip-path-2"><path class="cls-2" d="M857.43,655.36l-36.2-23.9,4.36,42.73-22.34,33,40.15-2.83,35.7,23-3.85-41.88L900.17,651Zm1.15,35.34a14,14,0,1,1,4.93-19.18A14,14,0,0,1,858.58,690.7Z"/></clipPath><clipPath id="clip-path-3"><path class="cls-2" d="M506,495s-1-27,2-35c0,0,63.51-.59,64,2,3.93,20.79-1.93,33.74-1,35C571,497,533,494.34,506,495Z"/></clipPath></defs><g class="cls-3"><g id="Layer_3" data-name="Layer 3"><path class="cls-4" d="M766.39,836.64c-43.18-7-120.3-34.67-229.25-82.16a197.55,197.55,0,0,1-37-3.83,188,188,0,0,1-37-11.5,203.38,203.38,0,0,1-33.23-18,180.2,180.2,0,0,1-28.87-23.69c-2.84-2.84-5.64-5.82-8.31-8.84-30-14.21-54.49-26.13-69.62-33.55a92,92,0,0,1-9.36,18.79c-4,5.85-8.36,7.07-11.33,7.07-3.5,0-8.44-1.59-12.12-9.19-8.37-17.28-8.95-67.71,15.2-98.28,8.36-10.58,14.5-15.09,20.53-15.09a10.9,10.9,0,0,1,8.62,4.17c6.71,8.3,3.37,30.06.73,42.5,0,.14,0,.33-.08.56q8.13,4.3,16.4,8.61-2.3-7.86-3.85-15.79A196.27,196.27,0,0,1,344,559.2v-.51a196.25,196.25,0,0,1,3.88-39.24,180.79,180.79,0,0,1,9.65-32.53c.53-11.47,10.84-29.31,20.14-38.06,1-1.49,2-3,3.1-4.49a56.18,56.18,0,0,1-15.69-20.06c-6.72-14.33-11.11-39.23,6.11-76.46L375.3,339,399,358.69c-1.74-25.14,10.11-67.26,77.19-124.4l7-6,4.43,8.07c.15.27,13.58,24.56,29.65,43.51,13.23-13.34,31.17-25.63,53.46-36.63l10.82-5.33V250c0,.47.47,45.13,28.62,67.14A135,135,0,0,0,624,292.27l3.57-9.09,7.86,5.78c1.55,1.15,36.06,27.39,52.6,106.62a18,18,0,0,0,1.25-1.94c1.76-3.52,4.77-16.22,6.34-24.11l3.77-18.86,10,16.43c.83,1.37,18.81,31.35,20.8,70.13a40.5,40.5,0,0,1,9.09-1.12,26.25,26.25,0,0,1,15.54,4.7,17.86,17.86,0,0,0,10.71,3.06c17.18,0,40.59-16.37,48.16-22.68l15.55-12.95-3.35,19.95c-1.45,8.66,9.19,22.5,16.25,29.19l7.82,7.43-9.68,4.75c-1.08.53-26.85,13-55.38,13-1.51,0-3,0-4.49-.1,7.73,3.52,13.83,8.64,14.76,16.34.76,6.36,20.89,13.36,38.38,15.37l25.77,3L836,528.39c-4.83,2.32-7,11.76-7.2,15.71l-.58,9.62L819,550.8c-1.4-.44-34.31-11.1-46.09-32.46-5.67-10.3-24.53-11.41-32.37-11.41-4.35,0-7.33.31-7.36.32l-5.15.55c1,3.86,2,7.76,2.76,11.67a197.61,197.61,0,0,1,3.88,39.25v.45a197.51,197.51,0,0,1-3.88,39.24,188.36,188.36,0,0,1-11.5,37,204.21,204.21,0,0,1-18,33.23,182.27,182.27,0,0,1-23.73,28.87,188.49,188.49,0,0,1-28.85,23.66,209.29,209.29,0,0,1-29.07,16.18c107.63,43.67,182.1,67.36,182.88,67.6l17.12,5.42-50.74,26.72Z"/><path class="cls-5" d="M481,240s16.88,30.74,36.13,51c10.56-12.26,28-26.82,56.87-41,0,0,0,54.77,37.83,77.4A141.39,141.39,0,0,0,631,295s38,28,52.61,117.73c0,0,10.14-11.25,12.39-15.73,3-6,7-26,7-26s21,34.52,19.85,76.57c5.73-2.44,11.35-4,16.45-4a18.85,18.85,0,0,1,11.19,3.31,25.38,25.38,0,0,0,15.06,4.45c23.74,0,53-24.42,53-24.42-2.68,15.9,18.48,35.88,18.48,35.88s-25,12.24-52.08,12.24a72.65,72.65,0,0,1-22.22-3.24A37.88,37.88,0,0,0,751.1,470c-8.33,0-16,2.77-22.75,6.67a13.34,13.34,0,0,1,.36,3.61s57,2.43,59,19.42,45,21.93,45,21.93c-10.42,5-11.44,22-11.44,22S790,533.7,779.48,514.72c-7.33-13.3-27.51-15.29-38.94-15.29-4.89,0-8.18.36-8.18.36l-9.48,1c0-.1,0-.19-.06-.29-1.55.12-3.1.22-4.66.33A185.36,185.36,0,0,1,723.44,521a189.54,189.54,0,0,1,3.73,37.75h0c0,.08,0,.15,0,.22s0,.15,0,.23a189.62,189.62,0,0,1-3.73,37.75,180.73,180.73,0,0,1-11,35.49,195.79,195.79,0,0,1-17.36,32,173.61,173.61,0,0,1-22.77,27.72,179.91,179.91,0,0,1-27.73,22.74,199.63,199.63,0,0,1-32,17.37,1.05,1.05,0,0,1-.46.21q-6.18,2.64-12.47,4.78c118.49,48.84,200.61,74.83,200.61,74.83l-21.46,11.31-11.16,5.87c-50.08-8.15-141.05-43.92-228.87-82.25a189.72,189.72,0,0,1-37.12-3.69,179.73,179.73,0,0,1-35.48-11,195.52,195.52,0,0,1-32-17.37,172.26,172.26,0,0,1-27.72-22.74q-4.69-4.68-9-9.69c-36-17-64.18-30.83-78.52-37.9-2.95,9.23-6.68,18.28-11.28,25-1.77,2.61-3.5,3.79-5.12,3.79-11.71,0-17.64-61.65,9-95.32,7-8.84,11.63-12.24,14.64-12.24,10.06,0,2,37.87,2,37.87s-.3,2.26-.93,6q19.05,10.14,37.94,19.79A172.5,172.5,0,0,1,355.23,597a189.76,189.76,0,0,1-3.73-37.75v-.51h0a189.69,189.69,0,0,1,3.73-37.75A172.89,172.89,0,0,1,365,488.4c-.48-8.24,9-26.27,18.4-34.64l.21-.32c2.81-4.25,5.83-8.36,9-12.33L389,441s-42-23-11-90l36,30s-41-49,67-141m4.28-23.34-14,11.92C423.59,269.2,397,307.68,392.14,343c0,.08,0,.17,0,.26l-4.5-3.75-15-12.51-8.2,17.73c-7.92,17.1-12.2,33.28-12.74,48.08a74.54,74.54,0,0,0,6.64,34.71,64.57,64.57,0,0,0,12.32,17.8c-9.72,10.11-19.2,27.16-20.46,39.89A187.79,187.79,0,0,0,340.52,518a202.73,202.73,0,0,0-4,36.11,18.39,18.39,0,0,0-10.49-3.28h0c-10.78,0-19.4,9.07-26.41,17.94-25.16,31.84-26.33,85-16.07,106.2,5.87,12.12,15.15,13.42,18.87,13.42,3.91,0,11.4-1.34,17.53-10.36a86,86,0,0,0,7-12.76c14.95,7.3,36.11,17.55,61.17,29.43,2.45,2.73,5,5.42,7.6,8a187.8,187.8,0,0,0,30,24.65A211.53,211.53,0,0,0,460.19,746a196,196,0,0,0,38.43,12,204.85,204.85,0,0,0,36.91,4c108.78,47.37,186,75,229.65,82.09l5,.8,4.44-2.33,11.16-5.88,21.47-11.3L839,808.61l-34.24-10.85c-.74-.23-68-21.63-167-61.22q7.68-4.26,15.08-9.17a196,196,0,0,0,30-24.58,189.63,189.63,0,0,0,24.68-30,211.4,211.4,0,0,0,18.68-34.42,196.63,196.63,0,0,0,12-38.43,205.07,205.07,0,0,0,4-40.74,1.77,1.77,0,0,0,0-.23,1.62,1.62,0,0,0,0-.22,205,205,0,0,0-4-40.74c-.24-1.17-.49-2.33-.75-3.49.91,0,2-.06,3.15-.06,13,0,23.32,3,25.81,7.53,13,23.54,46.59,34.78,50.38,36l18.65,5.92.86-19.28c.31-3.89,2-8.47,3.11-9.51L886,512.65l-51.55-5.92a127.15,127.15,0,0,1-16-3.16c-10-2.7-14.59-5.59-16-6.87a23.16,23.16,0,0,0-2.78-7.61A154.76,154.76,0,0,0,843.6,476.3L863,466.77,847.3,451.92c-7.72-7.35-14.66-18.5-14-22.48l6.72-40-31.13,26c-9.73,8.09-30.12,20.93-43.35,20.93a10.77,10.77,0,0,1-6.37-1.67,33.57,33.57,0,0,0-19.88-6.09c-.75,0-1.49,0-2.25.06-4-36.67-20.42-64.13-21.24-65.47l-20-32.88-7.28,36.54c-6.22-20.66-14.24-38.91-24-54.56-12.48-20.09-23.45-28.48-24.66-29.38l-15.76-11.61L617,289.55a121.28,121.28,0,0,1-8.33,16.09C589.46,284.69,589,250.36,589,250V225.84l-21.63,10.71c-19.84,9.77-36.4,20.61-49.43,32.33a314.57,314.57,0,0,1-23.79-36.1l-8.87-16.12Z"/><path class="cls-4" d="M287.14,638.3c-.17-.09-15.3-7.79-35.5-18.44-2.27,2.8-5.46,5.27-9.74,5.27a10.47,10.47,0,0,1-3.62-.65,12.38,12.38,0,0,1-4.9-3.13,10,10,0,0,1-2,.21,10.94,10.94,0,0,1-7-2.61,11.91,11.91,0,0,1-2.86-3.55,10.36,10.36,0,0,1-1.4.1,8.41,8.41,0,0,1-5.81-2.26,17.79,17.79,0,0,1-4.17-6,9.68,9.68,0,0,1-6.45-3.29c-2.39-2.77-3-6.46-2.68-11.51-28.52-15.94-47.15-27.5-55.39-34.41l-2.37-2L143,553c-.47-5.15-2.06-31.29,13-40.09l3.56-2.08,29.13,15a7.65,7.65,0,0,1,2.66,1.37l34.77,18a28.07,28.07,0,0,1,5.72-1.41c15.79-27.67,37.17-33.65,52.68-33.65,33.7,0,65.12,27.06,66.44,28.21l2.92,2.54-.39,3.86a97.23,97.23,0,0,0,0,13.77,7.9,7.9,0,0,1-8,8.49c-3.23,0-6.13-1.67-13.13-5.71-11.55-6.68-30.9-17.86-47.59-17.86-9.69,0-16.84,3.84-22.08,12,2.39,2.58,3,6.59,3,10.25l42.76,22.07-12.8,54.91Z"/><path class="cls-5" d="M284.49,517.64C315.77,517.64,346,544,346,544a100.56,100.56,0,0,0,0,15c0,.35-.15.51-.5.51-4.25,0-34.49-23.57-60.72-23.57-12.94,0-24.91,5.74-32.32,22.85a44.83,44.83,0,0,0,4.35,1.54c1.27.34,1.6,4.21,1.22,9.8l41.81,21.59-9.3,39.89s-18.2-9.25-41.68-21.7c-2.15,4.68-4.53,7.72-7,7.72a3,3,0,0,1-1-.19c-3.91-1.44-1.76-3.44-4.68-5a1.16,1.16,0,0,0-.56-.14c-1.2,0-2.47,1.8-4.26,1.8a3.56,3.56,0,0,1-2.25-.93c-1.49-1.21-2.16-4.88-3.61-6.15a1.19,1.19,0,0,0-.8-.26c-1.32,0-3.36,1.28-4.58,1.28a.92.92,0,0,1-.68-.23c-3.27-3.07-2.8-6.55-4.62-7.4-3.83-1.78-7.82,3.27-5.86-12-25.24-14-49-28-58.52-36,0,0-2.39-26.1,9.32-32.93l26.63,13.75a.32.32,0,0,1,.17-.07c.17,0,.2.25.2.25l39,20.16a20.61,20.61,0,0,1,9.11-2.43h.25l1,.48c13-25.67,30.86-33.9,48.34-33.9M159.31,502.28l-7.12,4.16c-19,11.1-17.23,41.31-16.69,47.26l.56,6.16,4.74,4c8.33,7,25.61,17.81,52.7,33a19.58,19.58,0,0,0,4.51,12,16.74,16.74,0,0,0,7.11,4.88,24.68,24.68,0,0,0,4,4.92,15.87,15.87,0,0,0,8.43,4.1,18.89,18.89,0,0,0,13.28,6.24,21,21,0,0,0,4.82,2.47,17.82,17.82,0,0,0,6.2,1.11,18.09,18.09,0,0,0,11-3.63c17.82,9.36,30.68,15.9,30.83,16l17.06,8.68L305.14,635l9.31-39.89,2.66-11.38-10.38-5.36-33.87-17.48a23,23,0,0,0-1.18-4.82c4.19-4.38,8.84-5.15,13.1-5.15,14.68,0,33.65,11,43.84,16.85,7.75,4.48,11.63,6.72,16.88,6.72A15.41,15.41,0,0,0,361,558.05a89.68,89.68,0,0,1,0-12.58l.83-7.75-5.9-5c-1.41-1.22-34.89-30.05-71.37-30.05v0c-16.95,0-40.06,6.21-57.43,34.45l-.23,0-31.51-16.27a15.18,15.18,0,0,0-3.78-1.94l-24.9-12.86-7.33-3.79Z"/><path class="cls-4" d="M841.44,712l-53.05,3.74,29.46-43.48-1.37-13.45a54.66,54.66,0,0,1-7.92.62,36.5,36.5,0,0,1-10.65-1.49c-2.74.17-5.47.25-8.13.25-53.62,0-74.43-32.68-75.29-34.07l-1.9-3.07,1.21-3.4a124.25,124.25,0,0,0,3.61-13.16,7.89,7.89,0,0,1,7.71-6.6c5,0,7,4.12,8.16,6.58,3,6.41,10.14,21.41,36,21.41a86,86,0,0,0,15.25-1.5,15.51,15.51,0,0,1,11.67-11.64,24.05,24.05,0,0,1,5.82-.6c4.86,0,11.06.92,17,1.82a114.81,114.81,0,0,0,14.43,1.63,9.6,9.6,0,0,0,1.9-.13,17.89,17.89,0,0,1,3.78-.43c6.48,0,11.61,4.24,12.2,10.09.45,4.53-2.16,9.74-8,12l15.94,10.52L916,641.84,883,687.6,888,742Z"/><path class="cls-5" d="M725.12,605.37c1.69,0,7,28,44.13,28a97.77,97.77,0,0,0,21.49-2.63,12.78,12.78,0,0,1,.87-3.53A8,8,0,0,1,798,620a17,17,0,0,1,4-.38c8.56,0,23.16,3.45,31.49,3.45a17.1,17.1,0,0,0,3.52-.3,9.61,9.61,0,0,1,2.16-.26c6,0,6.6,6.7.07,8a19.68,19.68,0,0,1-4,.35c-3.15,0-6.5-.48-9.89-.48a26.57,26.57,0,0,0-3.21.18c6.61,3.48,12.29,7.55,14.23,10.9l21,13.88L900.17,651l-24.92,34.48,3.85,41.88-35.7-23-40.15,2.83,22.34-33-2.49-24.37a62.4,62.4,0,0,1-14.54,2.09,28,28,0,0,1-9.67-1.57c-3.15.23-6.18.33-9.12.33-50,0-68.9-30.52-68.9-30.52a131.09,131.09,0,0,0,3.86-14c.12-.51.24-.74.39-.74m0-15a15.33,15.33,0,0,0-15,12.45,121,121,0,0,1-3.37,12.32l-2.43,6.79,3.81,6.11c.95,1.54,23.91,37.63,81.66,37.63,2.4,0,4.85-.06,7.31-.19a44.63,44.63,0,0,0,11.48,1.43l1.2,0,.35,3.4-19.27,28.45-17.32,25.54,30.79-2.17,35.16-2.48L871,740l25.89,16.71L894,726l-3.34-36.27,21.63-29.93,19.58-27.1-33.27,3.4-37.41,3.81-5.36-3.54a18.32,18.32,0,0,0,3-12c-1-9.76-9.25-16.84-19.66-16.84a25,25,0,0,0-5.11.55h-.57a116.53,116.53,0,0,1-13.31-1.54c-6.27-.94-12.75-1.91-18.18-1.91a31.33,31.33,0,0,0-7.63.83,22.8,22.8,0,0,0-15.4,12.2,71.77,71.77,0,0,1-9.71.71c-21.09,0-26.36-11.14-29.19-17.12-.44-.92-.85-1.78-1.34-2.66a15.41,15.41,0,0,0-13.57-8.21h0Z"/><path class="cls-5" d="M272.66,581.91l-23.21-22.5,5.28-5.39c19.14-19.53,22.34-19.53,25.16-19.53a7.63,7.63,0,0,1,1.58.16l31.8,6.29,3.46.68,12.39,22.9-25.29,19.67Z"/><path class="cls-5" d="M279.89,542H280l31.81,6.3,7.69,14.2-18,14-25.57-1.87-15.84-15.36S277,542,279.89,542m0-15h0c-6.57,0-11.28,3.34-21.25,12.72-4.76,4.48-9.08,8.88-9.26,9.07l-10.55,10.77,10.83,10.5,15.84,15.35,3.91,3.79,5.43.4,25.57,1.87,5.76.42,4.55-3.54,18-14,10-7.8-6.05-11.18L325,541.16,321.65,535l-6.93-1.37-31.78-6.29a15.61,15.61,0,0,0-3.05-.3Z"/><path class="cls-4" d="M539.3,755.5a199,199,0,0,1-39.37-3.87,188.73,188.73,0,0,1-37.17-11.56A205.74,205.74,0,0,1,429.37,722a181.72,181.72,0,0,1-29-23.83,187.51,187.51,0,0,1-23.81-29,202.8,202.8,0,0,1-17.87-32.83,10.13,10.13,0,0,1-.65-1.48,183,183,0,0,1-11.13-36.24A197.36,197.36,0,0,1,343,559.2v-.28h8.68v-.46c125,0,250.53,0,375.3,0v.44h8.68v.23a198.85,198.85,0,0,1-3.9,39.44,190.61,190.61,0,0,1-11.56,37.16,205,205,0,0,1-18.12,33.39,183.19,183.19,0,0,1-23.86,29,188.8,188.8,0,0,1-29,23.77,209.41,209.41,0,0,1-32.8,17.86,10.55,10.55,0,0,1-1.51.66,182.54,182.54,0,0,1-36.24,11.13A196.55,196.55,0,0,1,539.3,755.5Z"/><path class="cls-5" d="M727.16,558.94c0,.08,0,.15,0,.23a189.62,189.62,0,0,1-3.73,37.75,180.73,180.73,0,0,1-11,35.49,195.79,195.79,0,0,1-17.36,32,173.61,173.61,0,0,1-22.77,27.72,179.91,179.91,0,0,1-27.73,22.74,199.63,199.63,0,0,1-32,17.37,1.05,1.05,0,0,1-.46.21,172.89,172.89,0,0,1-35,10.82,193.35,193.35,0,0,1-75.44,0,179.73,179.73,0,0,1-35.48-11,195.52,195.52,0,0,1-32-17.37,172.26,172.26,0,0,1-27.72-22.74,177.83,177.83,0,0,1-22.77-27.72,196.26,196.26,0,0,1-17.37-32,1.11,1.11,0,0,1-.21-.46,173.09,173.09,0,0,1-10.82-35,189.76,189.76,0,0,1-3.73-37.75v-.26c0,2.7.07,5.36.18,8,125,0,250.53,0,375.3,0,.12-2.68.18-5.35.18-8.06m-375.48-9v8.94H334.5v-.13c0,.15,0,.28,0,.42a205.53,205.53,0,0,0,4.06,41.06,191.36,191.36,0,0,0,11.5,37.56A16.67,16.67,0,0,0,351,640a214.21,214.21,0,0,0,18.46,33.86,196,196,0,0,0,24.87,30.29A189.68,189.68,0,0,0,424.68,729a213.12,213.12,0,0,0,34.72,18.84A198.58,198.58,0,0,0,498.22,760a208,208,0,0,0,41.08,4,205.63,205.63,0,0,0,41.07-4.06,191.56,191.56,0,0,0,37.56-11.5,18.65,18.65,0,0,0,2.2-1A218.46,218.46,0,0,0,654,729a197.25,197.25,0,0,0,30.28-24.82,191.65,191.65,0,0,0,24.94-30.35A213.23,213.23,0,0,0,728,639.13a197.9,197.9,0,0,0,12.08-38.82,206.12,206.12,0,0,0,4.08-41.14c0-.14,0-.27,0-.4v.15H727V550c-124.78,0-252.14,0-375.31,0Z"/><path class="cls-4" d="M727,567.5c-124.77,0-250.28,0-375.3,0h-8.13l-.36-8.12c-.12-2.73-.18-5.55-.19-8.39v-.27a197.41,197.41,0,0,1,3.9-39.43A182.61,182.61,0,0,1,358,475.07a9.81,9.81,0,0,1,.65-1.49,203.44,203.44,0,0,1,17.88-32.84,187.89,187.89,0,0,1,23.84-29,181.17,181.17,0,0,1,29-23.82,205.57,205.57,0,0,1,33.33-18.08,190.61,190.61,0,0,1,37.16-11.56,199.9,199.9,0,0,1,39.38-3.87,197.41,197.41,0,0,1,39.43,3.9,183.07,183.07,0,0,1,36.19,11.12,9,9,0,0,1,1.5.67,208.5,208.5,0,0,1,32.83,17.86,189.11,189.11,0,0,1,29,23.8,183.44,183.44,0,0,1,23.85,29,205.46,205.46,0,0,1,18.09,33.35,190.3,190.3,0,0,1,11.56,37.15,198.88,198.88,0,0,1,3.9,39.45V551c0,2.79-.06,5.63-.19,8.38l-.36,8.12Z"/><path class="cls-5" d="M539.3,362.88a190.51,190.51,0,0,1,37.75,3.73,173.52,173.52,0,0,1,35,10.82,1.08,1.08,0,0,1,.46.22,200.37,200.37,0,0,1,32,17.36,180.49,180.49,0,0,1,27.73,22.74A173.69,173.69,0,0,1,695,445.48a195,195,0,0,1,17.36,32,180.32,180.32,0,0,1,11,35.49,189.54,189.54,0,0,1,3.73,37.75c0,.07,0,.15,0,.22,0,2.71-.06,5.38-.18,8.06-124.77,0-250.28,0-375.3,0-.11-2.67-.17-5.33-.18-8v-.25a189.69,189.69,0,0,1,3.73-37.75,172.89,172.89,0,0,1,10.82-35,1,1,0,0,1,.21-.46,196.36,196.36,0,0,1,17.37-32,178.76,178.76,0,0,1,22.77-27.72A172.26,172.26,0,0,1,434.12,395a195.47,195.47,0,0,1,32-17.36,180.43,180.43,0,0,1,35.48-11,190.81,190.81,0,0,1,37.69-3.7m0-17a207.52,207.52,0,0,0-41,4A198.23,198.23,0,0,0,459.4,362a214.31,214.31,0,0,0-34.72,18.84,190.13,190.13,0,0,0-30.34,24.9,196.09,196.09,0,0,0-24.89,30.32A215.07,215.07,0,0,0,351,469.9a16.51,16.51,0,0,0-.93,2.16,190.71,190.71,0,0,0-11.51,37.56,205.63,205.63,0,0,0-4.06,41.07V551c0,2.93.08,5.85.2,8.68l.72,16.25h16.26c123.17,0,250.53,0,375.3,0h16.26l.73-16.24c.12-2.85.19-5.77.19-8.71,0-.11,0-.22,0-.33a206,206,0,0,0-4.08-41.14A197.79,197.79,0,0,0,728,470.75,213.23,213.23,0,0,0,709.17,436a192,192,0,0,0-24.93-30.34,198.07,198.07,0,0,0-30.32-24.85,217.46,217.46,0,0,0-33.79-18.42,17.13,17.13,0,0,0-2.2-1,190.92,190.92,0,0,0-37.56-11.51,205.63,205.63,0,0,0-41.07-4.06Z"/></g><g id="Layer_1" data-name="Layer 1"><path class="cls-6" d="M351.68,550.91c125,0,250.53,0,375.3,0,.12,2.76.19,5.51.19,8.29a189.62,189.62,0,0,1-3.73,37.75,180.73,180.73,0,0,1-11,35.49,195.79,195.79,0,0,1-17.36,32,173.61,173.61,0,0,1-22.77,27.72,179.91,179.91,0,0,1-27.73,22.74,199.63,199.63,0,0,1-32,17.37,1.05,1.05,0,0,1-.46.21,172.89,172.89,0,0,1-35,10.82,193.35,193.35,0,0,1-75.44,0,179.73,179.73,0,0,1-35.48-11,196.23,196.23,0,0,1-32-17.36,172.86,172.86,0,0,1-27.72-22.75,177.83,177.83,0,0,1-22.77-27.72,196.26,196.26,0,0,1-17.37-32,1.11,1.11,0,0,1-.21-.46,173.09,173.09,0,0,1-10.82-35,189.76,189.76,0,0,1-3.73-37.75c0-2.78.06-5.53.18-8.29Z"/><path class="cls-7" d="M539.3,751a194.57,194.57,0,0,1-38.48-3.78,185,185,0,0,1-36.28-11.28,199.83,199.83,0,0,1-32.65-17.72A176.78,176.78,0,0,1,403.55,695a183.35,183.35,0,0,1-23.26-28.32,199.82,199.82,0,0,1-17.58-32.34,5.45,5.45,0,0,1-.46-1.06,175.8,175.8,0,0,1-10.95-35.53,193.47,193.47,0,0,1-3.8-38.52c0-2.81.06-5.66.19-8.46l.17-3.82h3.82c125,0,250.53,0,375.3,0h3.83l.17,3.83c.12,2.8.19,5.65.19,8.46a194.45,194.45,0,0,1-3.81,38.55A186,186,0,0,1,716.08,634a201.35,201.35,0,0,1-17.72,32.65A178.8,178.8,0,0,1,675.08,695a185.27,185.27,0,0,1-28.33,23.23,205.29,205.29,0,0,1-32.32,17.57,5.4,5.4,0,0,1-1.08.48,176.21,176.21,0,0,1-35.53,10.94A193.32,193.32,0,0,1,539.3,751ZM409.6,665.38c3.42,4.17,7.16,8.29,11.18,12.31a160.82,160.82,0,0,0,24.64,20.22,180.15,180.15,0,0,0,28.76,15.55,155.63,155.63,0,0,0,31.44,9.78l.13,0c-20.64-19.27-37.91-38.69-51.46-57.89Zm214.72,0c-13.44,19.15-30.66,38.53-51.3,57.76a157.24,157.24,0,0,0,30.58-9.36l.12-.11.71-.3a173.78,173.78,0,0,0,28.74-15.54,159,159,0,0,0,24.65-20.23q6-6,11.11-12.22Zm-139.58,0a385.6,385.6,0,0,0,42.34,44.32V665.38Zm66.79,44.32a386.46,386.46,0,0,0,42.34-44.32H551.53Zm133.93-68.76a173.34,173.34,0,0,0,8.1-16.61,156.57,156.57,0,0,0,9.79-31.45,174.86,174.86,0,0,0,2.81-21.46h-44c-2.26,23-9.81,46.31-22.48,69.52Zm-74.11,0c14.76-23.44,23.58-46.8,26.26-69.52H551.53v69.52Zm-84.27,0V571.42H441c2.69,22.77,11.51,46.12,26.26,69.52Zm-88.16,0c-12.65-23.23-20.21-46.57-22.49-69.52H372.38a169.53,169.53,0,0,0,2.85,21.49,157.8,157.8,0,0,0,9.37,30.59l.11.11.3.72a174.87,174.87,0,0,0,8.14,16.61Z"/><path class="cls-6" d="M727,550.88c.12,2.76.19,5.51.19,8.29a189.62,189.62,0,0,1-3.73,37.75,180.73,180.73,0,0,1-11,35.49,195.79,195.79,0,0,1-17.36,32,173.61,173.61,0,0,1-22.77,27.72,179.91,179.91,0,0,1-27.73,22.74,199.63,199.63,0,0,1-32,17.37,1.05,1.05,0,0,1-.46.21,172.89,172.89,0,0,1-35,10.82,193.35,193.35,0,0,1-75.44,0,179.73,179.73,0,0,1-35.48-11,196.23,196.23,0,0,1-32-17.36,172.86,172.86,0,0,1-27.72-22.75,177.83,177.83,0,0,1-22.77-27.72,196.26,196.26,0,0,1-17.37-32,1.11,1.11,0,0,1-.21-.46,173.09,173.09,0,0,1-10.82-35,189.76,189.76,0,0,1-3.73-37.75c0-2.78.06-5.53.18-8.29,125,0,250.53,0,375.3,0m-16.57,16.54H658.48q-2.84,38.57-25.67,77.52h55a177.62,177.62,0,0,0,9.44-19.05,161.56,161.56,0,0,0,10-32.21,183,183,0,0,0,3.14-26.26m-68.37,0H547.53v77.52h66q25.31-39.39,28.49-77.52m-177,77.52h66V567.42H436.57q3.21,38.19,28.49,77.52m-74.25,0h55Q423,605.88,420.09,567.42H368.16a172.26,172.26,0,0,0,3.15,26.26,163.25,163.25,0,0,0,9.81,31.88c.09.12.09.21.21.33a182.66,182.66,0,0,0,9.48,19.05M677.1,661.38H622.23q-23.29,33.74-61.84,67.82h-.12v.09l.12-.1c4.46-.55,8.94-1.22,13.39-2.13a163,163,0,0,0,31.88-9.81c.13-.09.22-.09.34-.22a176.06,176.06,0,0,0,29.4-15.89,169,169,0,0,0,41.7-39.77m-75,0H547.53V718.6q33.09-28.87,54.53-57.22m-71,57.22V661.38H476.55Q498,689.76,531.08,718.6m-12.75,10.7q-38.5-34.11-62-67.92H401.51v.09a164.19,164.19,0,0,0,16.44,19,165.91,165.91,0,0,0,25.25,20.72,183.73,183.73,0,0,0,29.41,15.9,160.89,160.89,0,0,0,32.21,10c4.37.89,8.9,1.59,13.51,2.14m216.3-186.42H727c-124.77,0-252.13,0-375.3,0H344l-.34,7.65c-.12,2.86-.19,5.76-.19,8.64a196.49,196.49,0,0,0,3.89,39.33,181.53,181.53,0,0,0,11.1,36.1,8.55,8.55,0,0,0,.64,1.46A203.36,203.36,0,0,0,377,668.87a187.66,187.66,0,0,0,23.76,28.93,180.8,180.8,0,0,0,29,23.76A204.38,204.38,0,0,0,463,739.61,188.71,188.71,0,0,0,500,751.14,198.89,198.89,0,0,0,539.3,755a196.42,196.42,0,0,0,39.33-3.89A181.82,181.82,0,0,0,614.74,740a9,9,0,0,0,1.47-.64A209.75,209.75,0,0,0,649,721.54a188.8,188.8,0,0,0,28.94-23.74,182.69,182.69,0,0,0,23.78-28.94,205.29,205.29,0,0,0,18.06-33.29,189.38,189.38,0,0,0,11.53-37.06,197.78,197.78,0,0,0,3.89-39.34c0-2.88-.07-5.79-.2-8.64l-.34-7.65Zm-68.89,32.54h36.08c-.54,5.77-1.34,11.29-2.4,16.72a151.85,151.85,0,0,1-9.52,30.57v.06c-2,4.82-4.32,9.57-6.79,14.17H646.3c10.44-20.52,17-41.14,19.44-61.52Zm-110.21,0H633c-3.1,20.12-11.11,40.76-23.9,61.52h-53.6V575.42Zm-110,0h77.51v61.52H469.47c-12.78-20.72-20.8-41.36-23.9-61.52Zm-68.86,0h36.14c2.5,20.37,9,41,19.45,61.52H395.52c-2.5-4.63-4.74-9.3-6.83-14.18l-.61-1.43-.09-.09a153.83,153.83,0,0,1-8.83-29.09c-1.12-5.71-1.93-11.24-2.45-16.73Zm249.68,94h33.77c-1.66,1.81-3.39,3.61-5.16,5.39a155.07,155.07,0,0,1-24,19.72,169,169,0,0,1-28.12,15.2l-1.42.61-.09.09c-5,2.05-9.91,3.8-14.77,5.27a362.11,362.11,0,0,0,39.82-46.28Zm-70.86,0h29.85a384.61,384.61,0,0,1-29.85,31.2v-31.2Zm-62.31,0h29.86v31.2a386.53,386.53,0,0,1-29.86-31.2Zm-74.85,0h33.86a369.66,369.66,0,0,0,40,46.4,145.24,145.24,0,0,1-16.42-6,176.6,176.6,0,0,1-28.16-15.22,156.63,156.63,0,0,1-24-19.73c-1.8-1.8-3.55-3.63-5.23-5.47Z"/><path class="cls-6" d="M727,571c-124.77,0-250.28,0-375.3,0h-3.82l-.17-3.82c-.13-2.81-.19-5.65-.19-8.46a192.94,192.94,0,0,1,3.81-38.54,175.75,175.75,0,0,1,10.93-35.51,5.3,5.3,0,0,1,.48-1.07,199,199,0,0,1,17.57-32.34,183.8,183.8,0,0,1,23.28-28.34,176.8,176.8,0,0,1,28.35-23.25,201.25,201.25,0,0,1,32.62-17.7,185.9,185.9,0,0,1,36.28-11.28,195.32,195.32,0,0,1,38.48-3.78,193,193,0,0,1,38.54,3.81,175.15,175.15,0,0,1,35.51,10.94,4.88,4.88,0,0,1,1.08.47,205.44,205.44,0,0,1,32.33,17.58,184.54,184.54,0,0,1,28.33,23.24,179,179,0,0,1,23.28,28.34,201.14,201.14,0,0,1,17.71,32.64,185.8,185.8,0,0,1,11.28,36.27,194.3,194.3,0,0,1,3.81,38.55c0,2.81-.07,5.65-.19,8.46l-.17,3.82Z"/><path class="cls-6" d="M539.3,370.88a190.51,190.51,0,0,1,37.75,3.73,173.52,173.52,0,0,1,35,10.82,1.08,1.08,0,0,1,.46.22,200.37,200.37,0,0,1,32,17.36,179.91,179.91,0,0,1,27.73,22.74A173.69,173.69,0,0,1,695,453.48a195,195,0,0,1,17.36,32,180.32,180.32,0,0,1,11,35.49,189.54,189.54,0,0,1,3.73,37.75c0,2.78-.07,5.53-.19,8.28-124.77,0-250.28,0-375.3,0-.12-2.75-.18-5.5-.18-8.28a189.69,189.69,0,0,1,3.73-37.75,172.89,172.89,0,0,1,10.82-35,1,1,0,0,1,.21-.46,196.36,196.36,0,0,1,17.37-32,178.76,178.76,0,0,1,22.77-27.72A172.26,172.26,0,0,1,434.12,403a195.47,195.47,0,0,1,32-17.36,180.43,180.43,0,0,1,35.48-11,190.81,190.81,0,0,1,37.69-3.7m0-8A198.71,198.71,0,0,0,500,366.74,189.26,189.26,0,0,0,463,378.27a204.42,204.42,0,0,0-33.28,18.06,180.74,180.74,0,0,0-29,23.75A188.09,188.09,0,0,0,377,449a203.48,203.48,0,0,0-17.82,32.76,8.92,8.92,0,0,0-.64,1.46,182.07,182.07,0,0,0-11.11,36.15,196.46,196.46,0,0,0-3.88,39.29c0,2.87.07,5.78.19,8.63L344,575h7.65c123.17,0,250.53,0,375.3,0h7.65l.34-7.64c.13-2.86.2-5.77.2-8.64a197.8,197.8,0,0,0-3.89-39.35,189.38,189.38,0,0,0-11.53-37.06A205.19,205.19,0,0,0,701.69,449a182.89,182.89,0,0,0-23.81-29A188.28,188.28,0,0,0,649,396.34a209.14,209.14,0,0,0-32.75-17.82,9,9,0,0,0-1.47-.65,182.73,182.73,0,0,0-36.15-11.11,197.19,197.19,0,0,0-39.29-3.88Z"/><g class="cls-8"><path class="cls-7" d="M351.68,567c-.12-2.75-.18-5.5-.18-8.28A189.56,189.56,0,0,1,355.23,521a173.1,173.1,0,0,1,10.82-35,1,1,0,0,1,.21-.45,195.75,195.75,0,0,1,17.37-32A178.69,178.69,0,0,1,406.4,425.8a172.67,172.67,0,0,1,27.72-22.72,195.47,195.47,0,0,1,32-17.36,180.37,180.37,0,0,1,35.48-11,193.35,193.35,0,0,1,75.44,0,172.86,172.86,0,0,1,35,10.81,1.05,1.05,0,0,1,.46.21,200.37,200.37,0,0,1,32,17.36,180.36,180.36,0,0,1,27.73,22.72A174,174,0,0,1,695,453.54a194.87,194.87,0,0,1,17.36,32,180.25,180.25,0,0,1,11,35.46,189.41,189.41,0,0,1,3.73,37.73c0,2.78-.07,5.53-.19,8.28-124.77,0-250.28,0-375.3,0Zm16.48-16.5h51.93Q423,512,445.77,473h-55a183.32,183.32,0,0,0-9.48,19c-.12.13-.12.22-.21.34a162.85,162.85,0,0,0-9.81,31.86,172.15,172.15,0,0,0-3.15,26.24Zm33.35-93.9h54.87q23.47-33.78,62-67.88c-4.61.55-9.14,1.25-13.51,2.14a160.89,160.89,0,0,0-32.21,10,182.86,182.86,0,0,0-29.41,15.88A165.84,165.84,0,0,0,418,437.44a164.1,164.1,0,0,0-16.44,19v.09Zm158.76-67.88q38.7,34.14,62,67.88H677.1a169,169,0,0,0-41.7-39.75A176,176,0,0,0,606,400.94c-.12-.12-.21-.12-.34-.22a163.69,163.69,0,0,0-31.88-9.8c-4.49-.92-9-1.59-13.51-2.14v-.09ZM687.8,473h-55q22.83,39,25.67,77.47h51.93a182.85,182.85,0,0,0-3.14-26.24,161.47,161.47,0,0,0-10-32.2,178.24,178.24,0,0,0-9.44-19ZM547.53,399.38v57.19h54.53q-21.46-28.36-54.53-57.19Zm0,73.62v77.47H642q-3.21-38.16-28.49-77.47Zm-16.45,77.47V473h-66q-25.37,39.36-28.49,77.47Zm0-93.9V399.38Q498,428.26,476.55,456.57Z"/></g></g><g id="Layer_2" data-name="Layer 2"><polygon class="cls-6" points="434 377 406.96 382.58 405 420 419 435 390.55 457.79 518.33 469 618.68 469 636 437.75 539 388.69 451.83 358.39 434 377"/><path class="cls-9" d="M501,322s2-37,73-72c0,0,0,72,57,85,14.6,3.33-12,41.52,7.43,49.28C733,422,616.06,448.79,616.06,448.79l-129.8-75.21Z"/><path class="cls-9" d="M581.68,353.4C615,336,631,295,631,295s38,28,52.61,117.73c0,0,10.14-11.25,12.39-15.73,3-6,7-26,7-26s28,46,17.57,96.48c-8.85,42.86-181.57-29-181.57-29S560.58,364.41,581.68,353.4Z"/><path class="cls-10" d="M509,529.33l-66.65-16.68s-4.79,29.73,25.08,29.35S509,529.33,509,529.33Z"/><path class="cls-10" d="M569.07,529.33l66.65-16.68s4.79,29.73-25.08,29.35S569.07,529.33,569.07,529.33Z"/><path class="cls-7" d="M387.92,445l-.84-.46c-.48-.26-11.73-6.55-18.83-21.69-6.4-13.65-10.54-37.49,6.12-73.5l2.19-4.73,27.22,22.69a63.91,63.91,0,0,1-.74-22.82c4.45-32.52,29.81-68.69,75.37-107.5l3.73-3.19,2.37,4.3c.27.5,27.74,50.16,51.44,63.44,39.13,21.91,40,59.84,40,61.44l.13,11.34-7.21-8.74c-.18-.22-18.45-22-42.68-26.62a107.64,107.64,0,0,0-19.85-2.2,44.11,44.11,0,0,0-5.89.35c1.2,7.17,4.7,23.77,12.8,35.67,14.22,20.84,48.11,37.49,48.45,37.65L559,417.87c-1.92-.51-47.21-12.57-74.66-25.24-6.29-2.9-12.06-7.66-16.52-12a42.07,42.07,0,0,0,4.31,8.7C479,400,495,414.75,532,424.12,606.8,443.08,658.62,445,659.13,445l-.25,8Z"/><path class="cls-6" d="M481,240s28,51,53,65c37.56,21,38,58,38,58s-19-23-45-28a110.63,110.63,0,0,0-20.61-2.27C498.91,332.73,496,334,496,334s2.73,24.48,14,41c15,22,50,39,50,39s-46.55-12.33-74-25c-13-6-24-21-24-21s-6,41,69,60c76.18,19.3,128,21,128,21l-270-8s-42-23-11-90l36,30s-41-49,67-141m2.28-12.45-7.47,6.36c-25.22,21.49-44.59,42.55-57.56,62.59C407.57,313,401.12,329,399.07,343.92a72.12,72.12,0,0,0-.6,13.72l-15.35-12.79-8-6.67-4.38,9.46c-7.52,16.25-11.59,31.53-12.09,45.4a67.64,67.64,0,0,0,6,31.48c7.65,16.3,20,23.21,20.53,23.5l1.68.92,1.92.06,270,8,.5-16c-.51,0-52-1.93-126.3-20.76-25.36-6.42-40.38-15.32-49.27-23.5,27.84,12.64,72.36,24.49,74.26,25l5.55-14.93c-.33-.16-33.29-16.36-46.89-36.31-6.35-9.31-9.74-21.83-11.36-29.75h1.14a103.17,103.17,0,0,1,19.1,2.13c22.76,4.37,40.18,25,40.35,25.25l14.42,17.32L580,362.9c0-1.69-1-41.85-42.09-64.88-18.84-10.55-42.41-48.24-49.9-61.87l-4.73-8.6Z"/><path class="cls-6" d="M750.49,446.92c-22.31-15.85-70.42,30.06-76.5,36a278.07,278.07,0,0,0,27.86,18.83l0,0s27-40.75,60.83-29.91,74.3-9,74.3-9-21.16-20-18.48-35.88C818.52,427,774.34,463.87,750.49,446.92Z"/><path class="cls-11" d="M392.23,449.33c-12.85-.08-34.21,39.29-25,43s172,22.73,365.11,7.42c0,0,36.66-4.06,47.12,14.93s41.79,28.93,41.79,28.93,1-17,11.44-22c0,0-42.92-4.93-45-21.93s-59-19.42-59-19.42.61-7.48-6.7-14.47S645.81,450.93,392.23,449.33Z"/><path class="cls-6" d="M787.74,499.7c-1.92-15.9-57.46-18.56-63.87-18.89.36,4.63-2.74,13-1,20l9.48-1s36.66-4.06,47.12,14.93,41.79,28.93,41.79,28.93,1-17,11.44-22C832.71,521.63,789.79,516.7,787.74,499.7Z"/></g><g id="katana_shuriken" data-name="katana + shuriken"><path class="cls-6" d="M346,544s-86-75-118,28c0,0,16.73,32.32,17,26,5-117,101.5-31.18,101-39A100.56,100.56,0,0,1,346,544Z"/><g id="katana"><path class="cls-12" d="M328,603.71s13.69-64-16.6-25.63S293,691,307.56,669.61,328,603.71,328,603.71Z"/><path class="cls-13" d="M308.46,639.43S650.25,810.13,767.6,829.24l32.62-17.18S564.5,737.46,315.58,603.55Z"/><g class="cls-14"><path class="cls-15" d="M308.46,639.43S650.25,810.13,767.6,829.24l32.62-17.18S564.5,737.46,315.58,603.55Z"/><path class="cls-6" d="M312.05,637.67a1.63,1.63,0,0,0-.68-1.25l-.14-.07.1,0,.22.11.43.21,1.74.87,3.47,1.74,7,3.46,13.93,6.88L366,663.33q28,13.57,56.08,26.87,56.22,26.58,113,51.85,28.43,12.57,57.07,24.64T649.83,790c19.3,7.5,38.75,14.61,58.39,21.1l7.37,2.42,7.41,2.28c2.47.75,4.93,1.53,7.41,2.26l7.46,2.07c9.93,2.83,20,5.07,30.08,6.94l-1.37.23,32.69-17.06.33,3.77C757.72,800.2,716.41,785,675.34,769L660,763c-5.13-2-10.26-4-15.36-6.08L614,744.55l-30.48-12.72c-5.09-2.09-10.14-4.29-15.19-6.48l-15.16-6.54L538,712.26,523,705.5c-10-4.52-20.11-9-30.12-13.55-19.93-9.33-40-18.44-59.72-28.19-39.73-19-78.75-39.38-117.59-60.1l.2-.09-7.26,35.86Zm-4.38,5.83.79-4.07,7-35.91,0-.18.16.09c39,20.43,78.14,40.54,118,59.23,19.8,9.6,39.91,18.55,59.9,27.74,10,4.52,20.13,8.88,30.19,13.32l15.11,6.64,15.2,6.43,15.19,6.44c5.07,2.14,10.12,4.31,15.22,6.36L615,742.08l30.68,12.15c5.11,2,10.25,4,15.38,6l15.41,5.9c41.13,15.6,82.56,30.54,124.37,44l4.64,1.49-4.3,2.28-32.56,17.3-.66.35-.72-.13c-10.31-1.83-20.53-4-30.57-6.82l-7.55-2c-2.5-.72-5-1.49-7.48-2.22l-7.48-2.24-7.43-2.39c-19.8-6.38-39.38-13.37-58.79-20.75S609.22,779.88,590,772s-38.31-16-57.36-24.28q-57.12-24.8-113.57-51.08-28.24-13.1-56.34-26.5l-28.07-13.47-14-6.79-7-3.42-3.5-1.72-1.74-.86-.44-.21-.22-.11Z"/><path class="cls-16" d="M295.9,653.64S637.7,824.33,755,843.45l32.62-17.18S551.94,751.66,303,617.75Z"/><path class="cls-6" d="M293.89,663.64l4.26-11.1a.59.59,0,0,0-.1-.62l-.05,0,.1.05.22.11.44.22,1.73.87,3.48,1.73,7,3.45,13.95,6.87,28,13.62q28,13.53,56.13,26.8,56.26,26.52,113.14,51.7,28.46,12.54,57.13,24.58t57.66,23.25c19.33,7.48,38.81,14.57,58.47,21l7.38,2.41,7.42,2.27c2.48.75,5,1.53,7.43,2.25l7.47,2.07c10,2.82,20,5.05,30.18,6.92l-.86.14,32.67-17.11.21,2.36c-41.87-13.76-83.2-28.94-124.28-44.8l-15.39-6c-5.13-2-10.26-4-15.36-6.07l-30.62-12.34-30.5-12.67c-5.09-2.09-10.13-4.28-15.19-6.46l-15.16-6.53-15.17-6.53-15.07-6.73c-10.05-4.5-20.13-8.93-30.13-13.5-20-9.31-40-18.39-59.76-28.11-39.75-18.92-78.8-39.28-117.66-59.94l.12-.05-7.21,35.87Zm1.52-7.48.49-2.52,7-35.91,0-.11.1.06C342,638.16,381.15,658.33,421,677.07c19.79,9.63,39.89,18.61,59.87,27.82,10,4.54,20.12,8.91,30.18,13.37l15.1,6.66,15.19,6.46,15.18,6.45c5.07,2.15,10.12,4.33,15.22,6.39l30.53,12.53,30.67,12.19c5.11,2.06,10.24,4,15.38,6l15.4,5.92c41.12,15.66,82.52,30.66,124.35,44.19l2.9.94-2.69,1.42-32.59,17.26-.41.22-.44-.08c-10.28-1.84-20.47-4.06-30.49-6.84l-7.53-2.05c-2.5-.71-5-1.49-7.47-2.23l-7.46-2.24-7.42-2.39c-19.77-6.41-39.32-13.42-58.72-20.83s-38.67-15.11-57.86-23-38.27-16.06-57.3-24.34Q463.49,736,407.1,709.63q-28.23-13.14-56.3-26.57l-28-13.51-14-6.81-7-3.42-3.49-1.72-1.75-.86-1-.52Z"/></g><path class="cls-1" d="M308.46,639.43S650.25,810.13,767.6,829.24l32.62-17.18S564.5,737.46,315.58,603.55Z"/><path class="cls-12" d="M290.54,631.61s-115.75-58.87-140.1-79.28c0,0-2.39-26.1,9.32-32.93l140.08,72.32Z"/><path class="cls-12" d="M270.4,621.23c.8-32.41,11.05-39,11.05-39"/><path class="cls-12" d="M247.37,611.09c.8-32.41,11.05-39,11.05-39"/><path class="cls-12" d="M224.87,598.28c.8-32.41,11-39,11-39"/><path class="cls-12" d="M202.9,582.79c.8-32.41,10-35.83,10-35.83"/><path class="cls-12" d="M176.2,569.5c.8-32.41,10.7-36.65,10.7-36.65"/></g><path class="cls-6" d="M235.16,551.06s-19.41-1-24.51,26.82-.36,20.39,4.17,22.49c1.82.85,1.35,4.33,4.62,7.4,1.12,1.05,4.78-1.92,6.06-.79,1.45,1.27,2.12,4.94,3.61,6.15,3.44,2.79,5.26-1.71,7.07-.73,2.92,1.6.77,3.6,4.68,5,10.83,4,21.11-55.74,15.95-57.11S235.16,551.06,235.16,551.06Z"/><path class="cls-6" d="M793.42,647.36s-8-21.72,3.08-24.4,56,20.59,35.2,24.72C823.61,649.29,805.34,656.53,793.42,647.36Z"/><polygon class="cls-6" points="842.35 708.4 795.33 711.72 821.46 673.15 816.39 623.48 858.45 651.23 908.63 646.12 879.37 686.61 883.84 735.17 842.35 708.4"/><path class="cls-6" d="M821.23,631.46l36.2,23.9L900.17,651l-24.92,34.48,3.85,41.88-35.7-23-40.15,2.83,22.34-33-4.36-42.73m-9.67-16,1.71,16.78,4.06,39.84-20.7,30.55-9.23,13.63,16.42-1.16,37.49-2.64,33.45,21.59L888.57,743l-1.5-16.37-3.58-38.88,23.16-32,10.44-14.46L899.35,643l-39.89,4.07-33.82-22.33-14.08-9.29Z"/><g class="cls-17"><path class="cls-18" d="M857.43,655.36l-36.2-23.9,4.36,42.73-22.34,33,40.15-2.83,35.7,23-3.85-41.88L900.17,651Zm1.15,35.34a14,14,0,1,1,4.93-19.18A14,14,0,0,1,858.58,690.7Z"/><path class="cls-4" d="M803.25,707.15l35.44-22.76s5.51,11.53,18.33,7.1l22.08,35.87-34.87-21.19Z"/><path class="cls-4" d="M821.23,631.46l22.22,35.7s12.16-8.32,20.66,5.5L900.17,651l-37.89.08Z"/></g><path class="cls-6" d="M720.87,620.15S743,656,803,650c2.57-.26-6.82-5.71-7-11-.2-6.15,16.2-14.45,6-11.28-72,22.28-75.56-29-77.23-21.61A131.09,131.09,0,0,1,720.87,620.15Z"/><path class="cls-6" d="M791.64,630.53S790,622,798,620s31,4.53,39,2.77,9.47,6.3,2.23,7.76S823,628,815,633,791.64,630.53,791.64,630.53Z"/></g><g id="Layer_6" data-name="Layer 6"><g id="plate"><g class="cls-19"><path class="cls-18" d="M506,495s-1-27,2-35c0,0,63.51-.59,64,2,3.93,20.79-1.93,33.74-1,35C571,497,533,494.34,506,495Z"/><path class="cls-20" d="M508.55,457.18s12.82-26.12,20-32.05c0,0,64.77,34.33,63.94,37.05-6.66,21.85-19.26,30.89-19,32.6C573.51,494.78,536.29,471.38,508.55,457.18Z"/></g><text class="cls-21" transform="translate(513.62 487.57)">WEB</text><circle class="cls-22" cx="510.5" cy="463.5" r="1.5"/><circle class="cls-22" cx="509.5" cy="491.5" r="1.5"/><circle class="cls-22" cx="568.5" cy="494.5" r="1.5"/><circle class="cls-22" cx="569.5" cy="464.5" r="1.5"/></g></g></g></svg>